<svg id="Layer_1" data-name="Layer 1" xmlns="http://www.w3.org/2000/svg" viewBox="0 0 1177.19 1177.2"><defs><style>.cls-1{fill:#fff;}</style></defs><title>Logo AURORA BOREALIS Edimova verzija (1)</title><path class="cls-1" d="M573.8,467.67a3.6,3.6,0,0,1-1.63-.43,4.11,4.11,0,0,1-1.37-1.08,2.54,2.54,0,0,1-.52-1.65,2.93,2.93,0,0,1,.13-.86l27.79-99.17a3.07,3.07,0,0,1,1.44-2,4.54,4.54,0,0,1,2.22-.57,4.48,4.48,0,0,1,2.28.65,3.24,3.24,0,0,1,1.5,1.94l27.53,99.17a3,3,0,0,1,.13.86,2.56,2.56,0,0,1-.59,1.51,4.06,4.06,0,0,1-1.44,1.22,3.85,3.85,0,0,1-1.76.43,2.76,2.76,0,0,1-1.63-.5,2.61,2.61,0,0,1-1-1.65l-6.39-22.82H582.93l-6.26,22.82a2.52,2.52,0,0,1-1,1.65A3.3,3.3,0,0,1,573.8,467.67Zm11-31.58h33.92l-16.83-61.28Z"/><path class="cls-1" d="M680.4,468.53a29.53,29.53,0,0,1-13.44-3A21.59,21.59,0,0,1,657.5,456Q654,449.44,654,438.53V365.62a2.46,2.46,0,0,1,1-2.22,4,4,0,0,1,2.28-.65,4.15,4.15,0,0,1,2.22.65,2.41,2.41,0,0,1,1,2.22v72.91q0,11.77,5.22,17.44t14.61,5.67q9.26,0,14.55-5.67t5.29-17.44V365.62a2.46,2.46,0,0,1,1-2.22,4,4,0,0,1,2.28-.65,4.15,4.15,0,0,1,2.22.65,2.41,2.41,0,0,1,1,2.22v72.91q0,10.91-3.52,17.44a22,22,0,0,1-9.53,9.54A29.25,29.25,0,0,1,680.4,468.53Z"/><path class="cls-1" d="M784.13,467.81a2.82,2.82,0,0,1-2.41-1.79L780,462.79l-20.49-44.06h-18v45.93a2.63,2.63,0,0,1-1,2.22,3.62,3.62,0,0,1-2.22.79,3.53,3.53,0,0,1-2.28-.79,2.69,2.69,0,0,1-1-2.22v-99a2.77,2.77,0,0,1,.72-1.94,3.08,3.08,0,0,1,2-.93h22.44a36.15,36.15,0,0,1,13.57,2.51,20.72,20.72,0,0,1,10,8.61q3.78,6.1,3.78,16.72,0,9-2.81,14.78a20.4,20.4,0,0,1-7.57,8.68A29.53,29.53,0,0,1,766.38,418l20.88,44.49a2.38,2.38,0,0,1,.33.86,5.17,5.17,0,0,1,.06.72,3.18,3.18,0,0,1-.52,1.79,5.29,5.29,0,0,1-1.3,1.36A2.81,2.81,0,0,1,784.13,467.81Zm-42.67-55.69h18.66q9.26,0,15.07-5T781,390.74q0-11.34-5.81-16.22t-15.07-4.88H741.46Z"/><path class="cls-1" d="M835.67,468.53a29.13,29.13,0,0,1-13.37-3A21.68,21.68,0,0,1,812.9,456q-3.46-6.53-3.46-17.44V392.75q0-10.91,3.46-17.44a21.69,21.69,0,0,1,9.39-9.54,28.83,28.83,0,0,1,13.24-3,29.54,29.54,0,0,1,13.44,3,21.62,21.62,0,0,1,9.46,9.54q3.46,6.53,3.46,17.44v45.78q0,10.91-3.46,17.44a21.61,21.61,0,0,1-9.46,9.54A29.25,29.25,0,0,1,835.67,468.53Zm-.13-6.89q9.26,0,14.55-5.67t5.29-17.44V392.75q0-11.77-5.29-17.44t-14.55-5.67q-9.27,0-14.48,5.67t-5.22,17.44v45.78q0,11.77,5.22,17.44T835.54,461.64Z"/><path class="cls-1" d="M938.87,467.81a2.82,2.82,0,0,1-2.41-1.79l-1.76-3.23-20.49-44.06h-18v45.93a2.63,2.63,0,0,1-1,2.22,3.62,3.62,0,0,1-2.22.79,3.53,3.53,0,0,1-2.28-.79,2.69,2.69,0,0,1-1-2.22v-99a2.77,2.77,0,0,1,.72-1.94,3.08,3.08,0,0,1,2-.93h22.44a36.15,36.15,0,0,1,13.57,2.51,20.72,20.72,0,0,1,10,8.61q3.78,6.1,3.78,16.72,0,9-2.81,14.78a20.4,20.4,0,0,1-7.57,8.68A29.53,29.53,0,0,1,921.13,418L942,462.5a2.38,2.38,0,0,1,.33.86,5.17,5.17,0,0,1,.06.72,3.18,3.18,0,0,1-.52,1.79,5.29,5.29,0,0,1-1.3,1.36A2.81,2.81,0,0,1,938.87,467.81Zm-42.67-55.69h18.66q9.26,0,15.07-5t5.81-16.43q0-11.34-5.81-16.22t-15.07-4.88H896.21Z"/><path class="cls-1" d="M961.18,467.67a3.6,3.6,0,0,1-1.63-.43,4.11,4.11,0,0,1-1.37-1.08,2.54,2.54,0,0,1-.52-1.65,2.93,2.93,0,0,1,.13-.86l27.79-99.17a3.07,3.07,0,0,1,1.44-2,4.54,4.54,0,0,1,2.22-.57,4.48,4.48,0,0,1,2.28.65,3.24,3.24,0,0,1,1.5,1.94l27.53,99.17a3,3,0,0,1,.13.86,2.56,2.56,0,0,1-.59,1.51,4.06,4.06,0,0,1-1.44,1.22,3.85,3.85,0,0,1-1.76.43,2.76,2.76,0,0,1-1.63-.5,2.61,2.61,0,0,1-1-1.65l-6.39-22.82H970.32l-6.26,22.82a2.52,2.52,0,0,1-1,1.65A3.3,3.3,0,0,1,961.18,467.67Zm11-31.58h33.92l-16.83-61.28Z"/><path class="cls-1" d="M580.72,639.89a2.89,2.89,0,0,1-2.15-.86,2.77,2.77,0,0,1-.85-2V538a2.78,2.78,0,0,1,.91-2.22,3.11,3.11,0,0,1,2.09-.79H601.2a45.89,45.89,0,0,1,13.5,1.87,17.49,17.49,0,0,1,9.59,7q3.52,5.17,3.52,15.21,0,9.19-3,15.36a17.58,17.58,0,0,1-8.09,8.61,24.14,24.14,0,0,1,7,4.88,20.61,20.61,0,0,1,4.7,7.82,37.49,37.49,0,0,1,1.7,12.27v2.58q0,10.76-3.39,17.22a20.36,20.36,0,0,1-9.2,9.26,29.51,29.51,0,0,1-13,2.8Zm3.39-60.14h17.75q9.91,0,14.68-4.38t4.76-15.72q0-7.46-2.54-11.27a12.62,12.62,0,0,0-7-5.17,36.39,36.39,0,0,0-10.5-1.36H584.11Zm0,53.25h20q9.13,0,14.35-5.38t5.22-17.29v-2.44q0-11.91-5.22-16.72t-14.35-4.81h-20Z"/><path class="cls-1" d="M680.27,640.75a29.13,29.13,0,0,1-13.37-3,21.68,21.68,0,0,1-9.39-9.54Q654,621.67,654,610.76V565q0-10.91,3.46-17.44A21.69,21.69,0,0,1,666.9,538a28.83,28.83,0,0,1,13.24-3,29.54,29.54,0,0,1,13.44,3,21.62,21.62,0,0,1,9.46,9.54q3.46,6.53,3.46,17.44v45.78q0,10.91-3.46,17.44a21.61,21.61,0,0,1-9.46,9.54A29.25,29.25,0,0,1,680.27,640.75Zm-.13-6.89q9.26,0,14.55-5.67T700,610.76V565q0-11.77-5.29-17.44t-14.55-5.67q-9.27,0-14.48,5.67T660.44,565v45.78q0,11.77,5.22,17.44T680.14,633.86Z"/><path class="cls-1" d="M783.48,640a2.82,2.82,0,0,1-2.41-1.79L779.3,635,758.82,591h-18v45.93a2.63,2.63,0,0,1-1,2.22,3.62,3.62,0,0,1-2.22.79,3.53,3.53,0,0,1-2.28-.79,2.69,2.69,0,0,1-1-2.22v-99a2.77,2.77,0,0,1,.72-1.94,3.08,3.08,0,0,1,2-.93h22.44A36.15,36.15,0,0,1,773,537.49a20.72,20.72,0,0,1,10,8.61q3.78,6.1,3.78,16.72,0,9-2.81,14.78a20.4,20.4,0,0,1-7.57,8.68,29.53,29.53,0,0,1-10.76,3.95l20.88,44.49a2.38,2.38,0,0,1,.33.86,5.17,5.17,0,0,1,.06.72,3.18,3.18,0,0,1-.52,1.79,5.29,5.29,0,0,1-1.3,1.36A2.81,2.81,0,0,1,783.48,640Zm-42.67-55.69h18.66q9.26,0,15.07-5T780.34,563q0-11.34-5.81-16.22t-15.07-4.88H740.81Z"/><path class="cls-1" d="M812.7,639.89a3.1,3.1,0,0,1-2.09-.79,2.78,2.78,0,0,1-.91-2.22V538a2.78,2.78,0,0,1,.91-2.22,3.11,3.11,0,0,1,2.09-.79h46.45a2.26,2.26,0,0,1,2.09,1.08,4.24,4.24,0,0,1,.65,2.22,4.53,4.53,0,0,1-.72,2.44,2.26,2.26,0,0,1-2,1.15H816.22v42.2h20.62a2.35,2.35,0,0,1,2,1,4.1,4.1,0,0,1,.72,2.44,3.88,3.88,0,0,1-.65,2.15,2.31,2.31,0,0,1-2.09,1H816.22V633h42.93a2.29,2.29,0,0,1,2,1.08,4.43,4.43,0,0,1,.72,2.51,4.24,4.24,0,0,1-.65,2.22,2.26,2.26,0,0,1-2.09,1.08Z"/><path class="cls-1" d="M879.24,639.89a3.6,3.6,0,0,1-1.63-.43,4.11,4.11,0,0,1-1.37-1.08,2.54,2.54,0,0,1-.52-1.65,2.93,2.93,0,0,1,.13-.86l27.79-99.17a3.07,3.07,0,0,1,1.44-2,4.54,4.54,0,0,1,2.22-.57,4.48,4.48,0,0,1,2.28.65,3.24,3.24,0,0,1,1.5,1.94l27.53,99.17a3,3,0,0,1,.13.86,2.56,2.56,0,0,1-.59,1.51,4.06,4.06,0,0,1-1.44,1.22,3.85,3.85,0,0,1-1.76.43,2.76,2.76,0,0,1-1.63-.5,2.61,2.61,0,0,1-1-1.65L926,614.92H888.38l-6.26,22.82a2.52,2.52,0,0,1-1,1.65A3.3,3.3,0,0,1,879.24,639.89Zm11-31.58h33.92L907.3,547Z"/><path class="cls-1" d="M963,639.89a3.1,3.1,0,0,1-2.09-.79,2.78,2.78,0,0,1-.91-2.22v-99a2.5,2.5,0,0,1,1-2.15,3.75,3.75,0,0,1,2.28-.72,3.85,3.85,0,0,1,2.22.72,2.44,2.44,0,0,1,1,2.15V633H1005a1.89,1.89,0,0,1,1.76,1.08,5.06,5.06,0,0,1,0,4.74,1.89,1.89,0,0,1-1.76,1.08Z"/><path class="cls-1" d="M1030.72,639.89a3.53,3.53,0,0,1-2.28-.79,2.69,2.69,0,0,1-1-2.22v-99a2.46,2.46,0,0,1,1-2.22,4,4,0,0,1,2.28-.65,4.15,4.15,0,0,1,2.22.65,2.41,2.41,0,0,1,1,2.22v99a2.63,2.63,0,0,1-1,2.22A3.62,3.62,0,0,1,1030.72,639.89Z"/><path class="cls-1" d="M1083.18,640.75A33.12,33.12,0,0,1,1069,638a24.75,24.75,0,0,1-8.81-6.39q-3-3.66-3-5.81a4.07,4.07,0,0,1,.52-1.87,5.35,5.35,0,0,1,1.17-1.58,2,2,0,0,1,1.3-.57q1.17,0,2.41,1.79a41.78,41.78,0,0,0,3.46,4.23,18.64,18.64,0,0,0,6.13,4.23,24.94,24.94,0,0,0,10.31,1.79,24,24,0,0,0,11.29-2.44,16.17,16.17,0,0,0,7-7.25,26.22,26.22,0,0,0,2.41-11.84q0-7.46-2.41-12a21.29,21.29,0,0,0-6.26-7.32,37.26,37.26,0,0,0-8.48-4.59q-4.63-1.79-9.26-3.66a40.86,40.86,0,0,1-8.55-4.66,20.51,20.51,0,0,1-6.33-7.54q-2.42-4.74-2.41-12.34t2.54-12.7a20.68,20.68,0,0,1,6.59-7.75,25.19,25.19,0,0,1,8.61-3.87,38.61,38.61,0,0,1,8.87-1.08,40.19,40.19,0,0,1,7.63.72,50.69,50.69,0,0,1,6.85,1.79,17,17,0,0,1,5,2.51,4,4,0,0,1,1.83,3,4.63,4.63,0,0,1-.39,1.79,5.7,5.7,0,0,1-1,1.65,2,2,0,0,1-1.57.72,6.75,6.75,0,0,1-3.13-1.36,30,30,0,0,0-5.74-2.73,27.76,27.76,0,0,0-9.53-1.36,28.77,28.77,0,0,0-9.33,1.58,16,16,0,0,0-7.63,5.45q-3,3.87-3,11.05,0,6.17,2.41,9.9a18.63,18.63,0,0,0,6.33,6,50.62,50.62,0,0,0,8.48,3.95q4.57,1.65,9.26,3.8a36.31,36.31,0,0,1,8.55,5.45,24.26,24.26,0,0,1,6.26,8.75q2.41,5.46,2.41,14.07,0,10.19-3.46,16.65a21.77,21.77,0,0,1-9.39,9.47A30,30,0,0,1,1083.18,640.75Z"/><path class="cls-1" d="M580.72,812.12a2.89,2.89,0,0,1-2.15-.86,2.77,2.77,0,0,1-.85-2V710.08a2.77,2.77,0,0,1,.85-2,2.89,2.89,0,0,1,2.15-.86h23.09a29.54,29.54,0,0,1,13.44,3,21.62,21.62,0,0,1,9.46,9.54q3.46,6.53,3.46,17.44v44.92q0,10.91-3.46,17.44a21.61,21.61,0,0,1-9.46,9.54,29.54,29.54,0,0,1-13.44,3Zm3.52-6.89h19.7q9.26,0,14.48-5.67t5.22-17.44V737.2q0-11.77-5.22-17.44t-14.48-5.67h-19.7Z"/><path class="cls-1" d="M661,812.12a3.1,3.1,0,0,1-2.09-.79,2.78,2.78,0,0,1-.91-2.22V710.22a2.78,2.78,0,0,1,.91-2.22,3.11,3.11,0,0,1,2.09-.79h46.45a2.26,2.26,0,0,1,2.09,1.08,4.24,4.24,0,0,1,.65,2.22,4.53,4.53,0,0,1-.72,2.44,2.26,2.26,0,0,1-2,1.15H664.48v42.2H685.1a2.35,2.35,0,0,1,2,1,4.1,4.1,0,0,1,.72,2.44,3.88,3.88,0,0,1-.65,2.15,2.31,2.31,0,0,1-2.09,1H664.48v42.34h42.93a2.29,2.29,0,0,1,2,1.08,4.43,4.43,0,0,1,.72,2.51,4.24,4.24,0,0,1-.65,2.22,2.26,2.26,0,0,1-2.09,1.08Z"/><path class="cls-1" d="M755.42,813a4.15,4.15,0,0,1-2.22-.65,3.3,3.3,0,0,1-1.43-1.94L724,711.22a2.93,2.93,0,0,1-.13-.86,2.54,2.54,0,0,1,.52-1.65,4.1,4.1,0,0,1,1.37-1.08,3.59,3.59,0,0,1,1.63-.43,3.31,3.31,0,0,1,1.83.5,2.52,2.52,0,0,1,1,1.65l25.18,90.71,25.05-90.71a2.52,2.52,0,0,1,1-1.65,2.89,2.89,0,0,1,1.57-.5,3.85,3.85,0,0,1,1.76.43,4.42,4.42,0,0,1,1.44,1.15,2.44,2.44,0,0,1,.59,1.58,1.09,1.09,0,0,1-.07.43,1.09,1.09,0,0,0-.06.43L759.21,810.4a3.24,3.24,0,0,1-1.5,1.94A4.49,4.49,0,0,1,755.42,813Z"/><polygon class="cls-1" points="262.43 648.35 262.62 648.46 262.62 648.24 262.43 648.35"/><polygon class="cls-1" points="280.57 648.35 280.57 648.35 280.57 648.34 280.57 648.35"/><polygon class="cls-1" points="289.57 632.75 289.58 632.75 289.58 632.75 289.57 632.75"/><polygon class="cls-1" points="280.57 617.15 280.57 617.15 280.57 617.15 280.57 617.15"/><path class="cls-1" d="M382.4,450.21a92.23,92.23,0,1,0-75.94,97.74V480.6a25.25,25.25,0,1,1,10.61-20.86h0v89.6l65.49,0Z"/><path class="cls-1" d="M409.48,621.16a92.55,92.55,0,0,0-16,1.4v67.61a25.34,25.34,0,1,1-10.67,20.64v-1.7s-.18-84-.27-84v-65H317.06V716.44a4.18,4.18,0,0,0,.09.86,92.4,92.4,0,1,0,92.32-96.14"/><path class="cls-1" d="M245.26,595.11a92.55,92.55,0,0,1-1.4,16H176.24a25.34,25.34,0,1,0-20.64,10.67h1.7s84,.18,84,.27h65v65.47H150a4,4,0,0,1-.86-.1,92.4,92.4,0,1,1,96.14-92.32"/></svg>